<svg fill="#000000" xmlns="http://www.w3.org/2000/svg"  viewBox="0 0 32 32" width="32px" height="32px"><polyline fill="none" stroke="#000000" stroke-miterlimit="10" stroke-width="2" points="15.979,27 1.5,27 5.689,15.312"/><path fill="none" stroke="#000000" stroke-linecap="square" stroke-miterlimit="10" stroke-width="2" d="M30.5,5.977l-3.476,2.597	C21.066,3.749,13.777,3.401,8.591,8.96c-4.251,4.555-3.782,11.598,1.047,15.73c3.864,3.306,9.753,3.031,13.154-0.614	c2.721-2.917,2.663-7.753-0.163-10.68c-2.55-2.641-6.557-3.552-9.472-0.455c-1.75,1.86-1.727,5.238,0.091,7.104	c1.205,1.237,3.538,1.924,5.009,0.505c0.971-0.937,0.686-2.583-0.364-3.643"/></svg>