<svg fill="#000000" xmlns="http://www.w3.org/2000/svg"  viewBox="0 0 24 24" width="48px" height="48px"><polyline fill="none" stroke="#000000" stroke-linejoin="round" stroke-miterlimit="10" stroke-width="2" points="11.985,20 1.421,20 4.478,11.473"/><path fill="none" stroke="#000000" stroke-linecap="round" stroke-linejoin="round" stroke-miterlimit="10" stroke-width="2" d="M22.579,4.663l-2.536,1.895c-4.347-3.52-9.665-3.774-13.449,0.281C3.493,10.162,3.835,15.3,7.358,18.314	c2.819,2.412,7.115,2.212,9.597-0.448c1.985-2.128,1.943-5.656-0.119-7.792c-1.86-1.927-4.784-2.591-6.91-0.332	c-1.277,1.357-1.26,3.821,0.066,5.183c0.879,0.902,2.581,1.403,3.654,0.369c0.709-0.684,0.501-1.885-0.266-2.658"/></svg>