<svg xmlns="http://www.w3.org/2000/svg" version="1.0" width="100" height="100"><g stroke="#000" stroke-width="3.671" fill="none" stroke-linecap="round" stroke-linejoin="round"><path transform="matrix(1.29166 0 0 1.2814 242.137 -43.742)" d="M-160.875 61.313a12.188 5.438 0 11-24.375 0 12.188 5.438 0 1124.375 0z" style="marker:none" overflow="visible" stroke-width="4.44"/><path d="M-118.188 62.5c0 3.004-2.745 5.441-6.128 5.441l-14.464.026s0 0 0 0c-1.243 0-2.253 1.19-2.253 2.658 0 1.467 1.01 2.658 2.29 2.656 3.42-.002 5.68 2.215 5.68 5.219 0 3.004-2.745 5.441-6.128 5.441h-24.872c-3.383 0-6.128-2.437-6.128-5.441s2.745-5.441 6.128-5.441m45.875-10.559c0-3.004-2.745-5.441-6.128-5.441m-24.497 0s0 0 0 0m-15.25 16s0 0 0 0 13.536.224 14.78.224c1.244 0 2.253-1.19 2.253-2.658 0-1.467-1.01-2.658-2.305-2.67-3.435-.014-5.606-2.451-5.606-5.455s2.745-5.441 6.128-5.441h24.497s0 0 0 0" style="marker:none" overflow="visible" transform="matrix(1.48025 0 0 1.63567 272.091 -65.157)"/></g></svg>