<svg xmlns="http://www.w3.org/2000/svg" viewBox="0 0 1000 1000"><path d="M500 25.1c-270.6 0-490 218-490 487 0 215.1 140.4 397.7 335.1 462 24.5 4.5 33.4-10.5 33.4-23.4 0-11.5-.4-42.1-.6-82.8-136.3 29.5-165.1-65.3-165.1-65.3-22.3-56.2-54.4-71.2-54.4-71.2-44.5-30.2 3.4-29.6 3.4-29.6 49.2 3.5 75.1 50.2 75.1 50.2 43.7 74.4 114.7 52.9 142.6 40.5 4.4-31.5 17.1-52.9 31.1-65.1-108.8-12.3-223.2-54.1-223.2-240.6 0-53.2 19.1-96.7 50.4-130.7-5-12.3-21.9-61.8 4.8-128.8 0 0 41.1-13.1 134.8 50 39.1-10.8 81-16.3 122.7-16.4 41.6.2 83.6 5.6 122.7 16.4 93.6-63 134.6-50 134.6-50 26.7 67.1 9.9 116.6 4.9 128.8 31.4 34 50.4 77.5 50.4 130.7 0 187-114.5 228.2-223.7 240.2 17.6 15 33.2 44.8 33.2 90.3 0 65.1-.6 117.6-.6 133.5 0 13 8.8 28.2 33.7 23.4C849.7 909.5 990 727.1 990 512c0-268.9-219.4-486.9-490-486.9z"/></svg>