<?xml version="1.0" encoding="utf-8"?>
<!-- Svg Vector Icons : http://www.onlinewebfonts.com/icon -->
<!DOCTYPE svg PUBLIC "-//W3C//DTD SVG 1.1//EN" "http://www.w3.org/Graphics/SVG/1.1/DTD/svg11.dtd">
<svg version="1.1" xmlns="http://www.w3.org/2000/svg" xmlns:xlink="http://www.w3.org/1999/xlink" x="0px" y="0px" viewBox="0 0 1000 1000" enable-background="new 0 0 1000 1000" xml:space="preserve">
<metadata> Svg Vector Icons : http://www.onlinewebfonts.com/icon </metadata>
<g><path d="M500,25.1c-270.6,0-490,218-490,487c0,215.1,140.4,397.7,335.1,462c24.5,4.5,33.4-10.5,33.4-23.4c0-11.5-0.4-42.1-0.6-82.8c-136.3,29.5-165.1-65.3-165.1-65.3c-22.3-56.2-54.4-71.2-54.4-71.2c-44.5-30.2,3.4-29.6,3.4-29.6c49.2,3.5,75.1,50.2,75.1,50.2c43.7,74.4,114.7,52.9,142.6,40.5c4.4-31.5,17.1-52.9,31.1-65.1c-108.8-12.3-223.2-54.1-223.2-240.6c0-53.2,19.1-96.7,50.4-130.7c-5-12.3-21.9-61.8,4.8-128.8c0,0,41.1-13.1,134.8,50c39.1-10.8,81-16.3,122.7-16.4c41.6,0.2,83.6,5.6,122.7,16.4c93.6-63,134.6-50,134.6-50c26.7,67.1,9.9,116.6,4.9,128.8c31.4,34,50.4,77.5,50.4,130.7c0,187-114.5,228.2-223.7,240.2c17.6,15,33.2,44.8,33.2,90.3c0,65.1-0.6,117.6-0.6,133.5c0,13,8.8,28.2,33.7,23.4C849.7,909.5,990,727.1,990,512C990,243.1,770.6,25.1,500,25.1z"/></g>
</svg>