<svg xmlns="http://www.w3.org/2000/svg" width="64" height="64"><path fill="#f9dd8f" d="M58.233 19.275l-6.707-3.37 3.251-6.698a1.32 1.32 0 00-.17-1.443 1.322 1.322 0 00-1.394-.406l-7.654 2.219-1.07-6.41a1.325 1.325 0 00-.514-.904 1.334 1.334 0 00-1.008-.247 1.302 1.302 0 00-.741.411l-5.555 5.547L32.35 2.55a1.316 1.316 0 00-1.152-.493 1.314 1.314 0 00-.988.657l-3.292 5.465-8.106-4.643a1.324 1.324 0 00-1.425.041 1.317 1.317 0 00-.55 1.315l1.029 6.123-7.407-1.068a1.316 1.316 0 00-1.317 1.972l3.21 5.342-6.625 3.329a1.317 1.317 0 00.329 2.466l5.02.986-2.057 5.137a1.312 1.312 0 00.345 1.51 1.32 1.32 0 001.548.134l.658-.37v3.287c.005.082.021.164.041.247.165.817.684 1.577 1.44 1.972l39.01.041a2.812 2.812 0 001.605-2.013c.021-.082.036-.164.041-.247v-2.712a1.318 1.318 0 001.234-1.85l-2.14-5.342 5.349-2.137a1.313 1.313 0 00.083-2.424z"/><path fill="#faefde" d="M52.637 37.686c-.195-.257-.381-.484-.576-.646L48 35H16l-2.948 2a3.767 3.767 0 00-.7.686c-.658.903-1.039 2.326-.905 3.876.525 4.653 3.565 6.313 4.485 6.702.396 2.195 1.44 4.794 3.415 7.509C21.323 58.746 30.54 63 32.515 63s11.192-4.385 13.168-7.227c1.841-2.715 2.896-5.44 3.292-7.509.921-.389 3.95-2.049 4.609-6.702.133-1.549-.289-2.972-.947-3.876z"/><path fill="#85cbf8" d="M52 36H13v-6.568L19 25h26l7 4.432z"/><path fill="#a0a4ac" d="M40.817 36.079H24.183A4.183 4.183 0 0120 31.896v-3.663a4.183 4.183 0 014.183-4.183h16.635a4.183 4.183 0 014.183 4.183v3.663a4.184 4.184 0 01-4.184 4.183z"/><path fill="#8d6c9f" d="M31.957 3.698h.005-.005m11.758.07h.005-.005m-12.297.835l3.683 4.668a1.997 1.997 0 002.99.169l4.634-4.672.861 5.208a1.998 1.998 0 002.535 1.593l6.208-1.817-2.606 5.42a2 2 0 00.898 2.65l5.432 2.755-4 1.613a2 2 0 00-1.111 2.592l1.877 4.73a1.995 1.995 0 00-1.113 1.792v2.583a.827.827 0 01-.46.609c-.628.28-1.071.86-1.169 1.541a1.99 1.99 0 00.683 1.806c.026.024.095.099.245.301.329.463.676 1.421.589 2.607-.55 3.844-2.94 5.064-3.415 5.27a1.999 1.999 0 00-1.17 1.469c-.403 2.163-1.495 4.708-2.982 6.962-1.525 2.255-9.746 6.371-11.513 6.545-1.841-.165-9.978-4.178-11.486-6.51l-.047-.07c-2.05-2.896-2.805-5.354-3.078-6.906a1.998 1.998 0 00-1.174-1.489c-.667-.289-2.872-1.521-3.29-5.244-.098-1.237.231-2.19.525-2.606.093-.127.228-.241.335-.326a2 2 0 00-.312-3.333c-.194-.102-.36-.349-.413-.614a.037.037 0 01-.002-.012v-3.164a1.999 1.999 0 00-2.118-1.997l1.483-3.738a2 2 0 00-1.47-2.699l-3.107-.614 4.897-2.484a2 2 0 00.814-2.807l-2.486-4.176 5.993.873a2.004 2.004 0 001.716-.579 1.999 1.999 0 00.544-1.728l-.795-4.778 6.874 3.975a1.998 1.998 0 002.718-.707l2.783-4.661M43.179 2c-.071 0-.141.006-.212.017a1.302 1.302 0 00-.741.415l-5.555 5.601-4.321-5.476a1.315 1.315 0 00-1.152-.498 1.314 1.314 0 00-.988.664L26.919 8.24l-8.106-4.688a1.301 1.301 0 00-.677-.19c-.261 0-.523.078-.748.231a1.336 1.336 0 00-.55 1.328l1.029 6.181-7.407-1.079a1.322 1.322 0 00-1.281.581 1.34 1.34 0 00-.036 1.411l3.21 5.393-6.625 3.36a1.323 1.323 0 00-.715 1.364c.072.56.494 1.011 1.044 1.125l5.02.996-2.057 5.186a1.334 1.334 0 00.345 1.525 1.314 1.314 0 001.548.135l.658-.373v3.319c.005.083.021.166.041.249.165.825.684 1.592 1.44 1.991a3.765 3.765 0 00-.7.705c-.658.928-1.039 2.391-.905 3.983.525 4.781 3.565 6.487 4.485 6.887.396 2.256 1.44 4.926 3.415 7.716C21.323 58.628 30.54 63 32.515 63s11.192-4.506 13.168-7.426c1.841-2.79 2.896-5.59 3.292-7.716.921-.399 3.95-2.105 4.609-6.887.134-1.592-.288-3.054-.946-3.983-.195-.264-.381-.498-.576-.664a2.832 2.832 0 001.605-2.033c.021-.083.036-.166.041-.249v-2.738h.03a1.329 1.329 0 001.204-1.868l-2.14-5.393 5.349-2.157a1.333 1.333 0 00.083-2.448l-6.707-3.402 3.251-6.762a1.344 1.344 0 00-.17-1.457 1.313 1.313 0 00-1.394-.409l-7.654 2.24-1.07-6.472a1.342 1.342 0 00-.514-.913A1.339 1.339 0 0043.179 2z"/><path fill="#8d6c9f" d="M40.822 26A2.18 2.18 0 0143 28.178v3.644A2.18 2.18 0 0140.822 34H24.178A2.18 2.18 0 0122 31.822v-3.644A2.18 2.18 0 0124.178 26h16.644m0-2H24.178A4.177 4.177 0 0020 28.178v3.644A4.177 4.177 0 0024.178 36h16.644A4.177 4.177 0 0045 31.822v-3.644A4.177 4.177 0 0040.822 24z"/><path fill="#8d6c9f" d="M52 36H13a1 1 0 110-2h39a1 1 0 110 2zM18 50.109a.999.999 0 01-.708-1.706c.135-.135 3.332-3.301 6.708-3.301a1 1 0 110 2c-2.121 0-4.539 1.959-5.292 2.713a.992.992 0 01-.708.294zM19.999 55.12a1.002 1.002 0 01-.832-1.553c.09-.135 2.229-3.306 5.517-4.403a1 1 0 11.633 1.897c-2.626.877-4.467 3.589-4.484 3.616a1.007 1.007 0 01-.834.443zM23.999 59.13a1 1 0 01-.893-1.445c.043-.088 1.096-2.174 3.187-4.27a.999.999 0 111.416 1.412c-1.85 1.854-2.805 3.732-2.813 3.751-.177.35-.531.552-.897.552zM47 50.108a.996.996 0 01-.707-.292c-.027-.027-2.751-2.714-5.293-2.714a1 1 0 110-2c3.376 0 6.573 3.166 6.708 3.301A1 1 0 0147 50.108zM45.001 55.12a1 1 0 01-.833-.443c-.018-.027-1.858-2.739-4.484-3.616a1 1 0 11.633-1.897c3.288 1.098 5.427 4.269 5.517 4.403a1 1 0 01-.833 1.553zM41.001 59.13c-.366 0-.72-.202-.896-.552-.009-.019-.964-1.896-2.813-3.751a.999.999 0 111.416-1.412c2.091 2.096 3.144 4.182 3.187 4.27a1 1 0 01-.894 1.445z"/><ellipse cx="26" cy="40.089" fill="#8d6c9f" rx="2" ry="2.005"/><ellipse cx="39" cy="40.089" fill="#8d6c9f" rx="2" ry="2.005"/><path fill="#efc88e" d="M44.216 25.054H19.608c-.888 0-1.608-.72-1.608-1.608v-.006a3.398 3.398 0 013.398-3.398h21.38A3.222 3.222 0 0146 23.264v.006c0 .985-.799 1.784-1.784 1.784z"/><path fill="#8d6c9f" d="M52.999 31.065a.996.996 0 01-.53-.152l-7.756-4.859H19.287l-7.756 4.859a1.001 1.001 0 01-1.063-1.695l8-5.012a.999.999 0 01.531-.152h26c.188 0 .372.053.531.152l8 5.012a1 1 0 01-.531 1.847zM27 22.047a1 1 0 01-1-1v-2.009a1 1 0 012 0v2.009a1 1 0 01-1 1zM22 22.047a1 1 0 01-1-1v-2.009a1 1 0 012 0v2.009a1 1 0 01-1 1zM32 22.047a1 1 0 01-1-1v-2.009a1 1 0 012 0v2.009a1 1 0 01-1 1zM37 22.047a1 1 0 01-1-1v-2.009a1 1 0 012 0v2.009a1 1 0 01-1 1zM42 22.047a1 1 0 01-1-1v-2.009a1 1 0 012 0v2.009a1 1 0 01-1 1z"/></svg>