<svg xmlns="http://www.w3.org/2000/svg" viewBox="0 0 100 100"><path d="M30.22 15.32c3.56-2.62 7.61-3.68 11.12-4.03-.54.31-1.06.64-1.55 1.01a15.98 15.98 0 00-5.6 7.56c-.11.3-.06.64.13.91.18.26.49.42.81.43 4.46.04 8.52 2.11 11.14 5.68 2.75 3.73 3.47 8.58 1.93 12.96a13.98 13.98 0 01-4.9 6.62 13.903 13.903 0 01-10.4 2.57c-3.7-.56-6.96-2.52-9.17-5.54-1.66-2.25-2.6-4.92-2.72-7.73 0-6.23 1.59-14.83 9.21-20.44zm27.27 60.69a13.967 13.967 0 01-5.34 6.22c-5.39 3.11-13.64 6.03-22.3 2.24-4.05-1.77-7-4.75-9.05-7.62a15.887 15.887 0 0011 1.9c.32-.06.59-.27.72-.56.14-.29.12-.63-.04-.91-2.19-3.88-2.43-8.43-.66-12.49 1.86-4.25 5.69-7.3 10.26-8.15 2.76-.52 5.59-.2 8.18.93 3.43 1.5 6.07 4.24 7.43 7.72 1.37 3.49 1.3 7.3-.2 10.72zm30.37-14.15a15.973 15.973 0 00-3.85-10.48c-.19-.22-.47-.35-.76-.35h-.09c-.32.03-.61.21-.77.49-2.26 3.84-6.09 6.32-10.49 6.81-4.61.52-9.16-1.28-12.19-4.8a13.91 13.91 0 01-3.28-7.55c-.42-3.72.64-7.37 2.97-10.29 2.33-2.92 5.67-4.76 9.38-5.18 2.78-.31 5.56.21 8.05 1.51 5.39 3.11 12.04 8.8 13.09 18.19.5 4.39-.61 8.44-2.06 11.65z"/></svg>