<svg xmlns="http://www.w3.org/2000/svg" version="1.0" width="100" height="100"><path style="marker:none" d="M39.118 68.684L41.951 11.1M17.872 97.03c-.336-6.681 3.168-12.382 8.056-18.152 4.888-5.77 8.882-7.332 13.102-8.227.797 6.29-2.892 11.744-6.463 16.453-3.57 4.71-9.767 10.998-14.695 9.925z" overflow="visible" stroke="#000" stroke-width="5.699" stroke-linecap="round" stroke-linejoin="round"/><path style="marker:none" d="M39.332 2.476c1.17-3.959 10.736-2.907 16.836 1.286 6.1 4.192 9.297 3.513 15.86 3.815 6.562.302 14.291 6.988 12.781 15.354-1.51 8.367-7.807 16.577-8.687 15.543 1.045-2.35 5.233-11.814 3.289-17.862-1.962-6.104-5.478-5.115-14.953-5.703-9.475-.587-8.058-.558-13.961-3.133-5.903-2.575-11.561 3.892-11.524 2.64l.359-11.94z" overflow="visible"/></svg>