<svg xmlns="http://www.w3.org/2000/svg" width="204.8" height="153.6" viewBox="0 0 54.187 40.64" shape-rendering="geometricPrecision" text-rendering="geometricPrecision" image-rendering="optimizeQuality" fill-rule="evenodd" clip-rule="evenodd"><path d="M29.898 26.572h-4.392a94.437 94.437 0 01-.018-1.158c0-1.423.235-2.593.706-3.51.47-.923 1.417-1.952 2.828-3.105 1.411-1.146 2.258-1.899 2.528-2.258.43-.558.641-1.181.641-1.857 0-.941-.376-1.747-1.129-2.423-.753-.67-1.764-1.005-3.04-1.005-1.228 0-2.257.352-3.086 1.052-.824.7-1.394 1.77-1.705 3.205l-4.44-.553c.124-2.058 1-3.804 2.623-5.239 1.628-1.434 3.757-2.152 6.403-2.152 2.775 0 4.985.73 6.632 2.182 1.64 1.452 2.463 3.14 2.463 5.074 0 1.064-.305 2.075-.905 3.028-.606.952-1.893 2.252-3.869 3.892-1.023.852-1.658 1.535-1.905 2.052-.247.517-.359 1.44-.335 2.775zm-4.392 6.509v-4.839h4.839v4.839h-4.84z" fill="#2b2a29" fill-rule="nonzero"/></svg>