<svg xmlns="http://www.w3.org/2000/svg" width="100" height="100"><g stroke-width="5.028" fill="none" stroke="#000" stroke-linecap="round" stroke-linejoin="round"><path transform="matrix(1.55298 0 0 1.42706 801.53 -182.465)" d="M-453.571 162.898c0 18.245-13.592 33.036-30.358 33.036-16.765 0-30.357-14.791-30.357-33.036s13.592-33.036 30.357-33.036c16.766 0 30.358 14.79 30.358 33.036z" stroke-width="3.837"/><path d="M49.107 47.85c-6.234 11.874 2.653 18.942 8.115 18.865 11.676-.163 15.718-11.917 15.822-17.04.197-9.633-7.342-23.699-22.314-23.734-7.701-.018-26.487 5.227-26.371 27.183.159 30.09 31.13 42.38 49.091 37.528" stroke-width="5.711807999999999"/></g></svg>